HIERARCHY
ROOT SpineBase
{
  OFFSET 0.000000 0.000000 0.000000
  CHANNELS 6 Xposition Yposition Zposition Zrotation Xrotation Yrotation
  JOINT SpineMid
  {
    OFFSET 0.000000 32.757388 0.000000
    CHANNELS 3 Zrotation Xrotation Yrotation
    JOINT SpineShoulder
    {
      OFFSET -0.360572 24.278838 -1.836260
      CHANNELS 3 Zrotation Xrotation Yrotation
      JOINT Neck
      {
        OFFSET -0.055936 7.942340 -0.852838
        CHANNELS 3 Zrotation Xrotation Yrotation
        JOINT Head
        {
          OFFSET 5.785534 9.564299 5.867176
          CHANNELS 3 Zrotation Xrotation Yrotation
          End Site
          {
            OFFSET 0 0 0
          }
        }
      }
      JOINT ShoulderLeft
      {
        OFFSET -2.405228 -6.588381 -14.183771
        CHANNELS 3 Zrotation Xrotation Yrotation
        JOINT ElbowLeft
        {
          OFFSET 1.295319 -25.622886 -7.339031
          CHANNELS 3 Zrotation Xrotation Yrotation
          JOINT WristLeft
          {
            OFFSET 4.755730 -27.035536 0.285651
            CHANNELS 3 Zrotation Xrotation Yrotation
            JOINT HandLeft
            {
              OFFSET -1.005644 -6.396169 2.521186
              CHANNELS 3 Zrotation Xrotation Yrotation
              JOINT HandTipLeft
              {
                OFFSET 1.777994 -7.565877 1.746244
                CHANNELS 3 Zrotation Xrotation Yrotation
                End Site
                {
                  OFFSET 0 0 0
                }
              }
              JOINT ThumbLeft
              {
                OFFSET 4.411536 2.617645 4.713546
                CHANNELS 3 Zrotation Xrotation Yrotation
                End Site
                {
                  OFFSET 0 0 0
                }
              }
            }
          }
        }
      }
      JOINT ShoulderRight
      {
        OFFSET 8.133068 -6.038394 12.023027
        CHANNELS 3 Zrotation Xrotation Yrotation
        JOINT ElbowRight
        {
          OFFSET -7.990100 -13.933645 -27.486554
          CHANNELS 3 Zrotation Xrotation Yrotation
          JOINT WristRight
          {
            OFFSET 1.976820 -12.093402 26.252622
            CHANNELS 3 Zrotation Xrotation Yrotation
            JOINT HandRight
            {
              OFFSET 2.446948 -3.798691 1.748194
              CHANNELS 3 Zrotation Xrotation Yrotation
              JOINT HandTipRight
              {
                OFFSET 0.035825 -0.336567 -0.895225
                CHANNELS 3 Zrotation Xrotation Yrotation
                End Site
                {
                  OFFSET 0 0 0
                }
              }
              JOINT ThumbRight
              {
                OFFSET -0.489157 -0.330831 -2.062502
                CHANNELS 3 Zrotation Xrotation Yrotation
                End Site
                {
                  OFFSET 0 0 0
                }
              }
            }
          }
        }
      }
    }
  }
  JOINT HipLeft
  {
    OFFSET -2.124900 0.633586 -7.435405
    CHANNELS 3 Zrotation Xrotation Yrotation
    JOINT KneeLeft
    {
      OFFSET -2.553971 -36.814278 -4.162195
      CHANNELS 3 Zrotation Xrotation Yrotation
      JOINT AnkleLeft
      {
        OFFSET -8.529212 -36.168050 -1.487247
        CHANNELS 3 Zrotation Xrotation Yrotation
        JOINT FootLeft
        {
          OFFSET 10.268945 -3.910506 -7.339345
          CHANNELS 3 Zrotation Xrotation Yrotation
          End Site
          {
            OFFSET 0 0 0
          }
        }
      }
    }
  }
  JOINT HipRight
  {
    OFFSET 2.721126 0.915967 -0.231314
    CHANNELS 3 Zrotation Xrotation Yrotation
    JOINT KneeRight
    {
      OFFSET 0.267520 -38.063564 -7.428049
      CHANNELS 3 Zrotation Xrotation Yrotation
      JOINT AnkleRight
      {
        OFFSET -16.597344 -31.496768 -1.745417
        CHANNELS 3 Zrotation Xrotation Yrotation
        JOINT FootRight
        {
          OFFSET 10.270856 -3.959112 -7.359793
          CHANNELS 3 Zrotation Xrotation Yrotation
          End Site
          {
            OFFSET 0 0 0
          }
        }
      }
    }
  }
}
MOTION
Frames: 13
Frame Time: 0.033333
-26.941905 81.497633 331.321334 -0.000000 0.000000 -56.072187 0.000000 -0.000000 56.072187 -0.000000 0.000000 0.000000 -0.000000 0.000000 0.000000 0.000000 0.000000 0.000000 -0.000000 0.000000 0.000000 -0.000000 0.000000 0.000000 -0.000000 0.000000 0.000000 -0.000000 0.000000 0.000000 0.000000 0.000000 0.000000 0.000000 0.000000 0.000000 -0.000000 0.000000 0.000000 -0.000000 0.000000 0.000000 -0.000000 0.000000 0.000000 -0.000000 0.000000 0.000000 0.000000 0.000000 0.000000 0.000000 0.000000 0.000000 0.000000 -0.000000 56.072187 -0.000000 0.000000 0.000000 -0.000000 0.000000 0.000000 0.000000 0.000000 0.000000 0.000000 -0.000000 56.072187 -0.000000 0.000000 0.000000 -0.000000 0.000000 0.000000 0.000000 0.000000 0.000000
-26.937853 81.288989 331.167734 0.151383 -0.184974 -57.415147 -0.237385 -0.027937 57.415333 -0.000000 0.000000 0.000000 0.909575 -0.528231 -0.236060 0.000000 0.000000 0.000000 -0.000000 0.000000 0.000000 -0.976849 0.207825 0.028051 1.915220 -1.570699 0.572325 1.081972 0.476215 -0.345300 0.000000 0.000000 0.000000 0.000000 0.000000 0.000000 -0.000000 0.000000 0.000000 -0.000000 0.000000 0.000000 -0.000000 0.000000 0.000000 -0.000000 0.000000 0.000000 0.000000 0.000000 0.000000 0.000000 0.000000 0.000000 -0.237385 -0.027937 57.415333 -0.000000 0.000000 0.000000 -0.000000 0.000000 0.000000 0.000000 0.000000 0.000000 -0.237385 -0.027937 57.415333 -0.000000 0.000000 0.000000 -0.000000 0.000000 0.000000 0.000000 0.000000 0.000000
-26.944614 81.146885 331.027274 0.271371 -0.333554 -58.389178 -1.242481 0.174499 58.385227 0.231343 -0.816020 0.007021 1.785572 -0.985520 -0.491135 0.000000 0.000000 0.000000 0.532307 0.611599 -0.124170 -2.300400 -0.250764 0.150872 3.449717 -2.690178 1.027210 1.855174 0.589773 -0.667988 0.000000 0.000000 0.000000 0.000000 0.000000 0.000000 -0.000000 0.000000 0.000000 -0.000000 0.000000 0.000000 -0.000000 0.000000 0.000000 -0.000000 0.000000 0.000000 0.000000 0.000000 0.000000 0.000000 0.000000 0.000000 -0.426302 -0.056278 58.389759 -0.000000 0.000000 0.000000 -0.000000 0.000000 0.000000 0.000000 0.000000 0.000000 -0.804405 0.727555 58.305635 -0.468294 -0.733527 0.083341 -0.000000 0.000000 0.000000 0.000000 0.000000 0.000000
-26.962190 81.071323 330.899953 0.360620 -0.446535 -59.027970 -1.709223 0.221126 59.022299 0.329557 -1.132738 0.011351 2.631119 -1.372808 -0.768655 0.000000 0.000000 0.000000 0.743975 0.844176 -0.175472 -3.136136 -0.375526 0.197847 4.650302 -3.427466 1.372070 2.286482 0.414603 -0.961780 0.000000 0.000000 0.000000 0.000000 0.000000 0.000000 -0.000000 0.000000 0.000000 -0.000000 0.000000 0.000000 -0.000000 0.000000 0.000000 -0.000000 0.000000 0.000000 0.000000 0.000000 0.000000 0.000000 0.000000 0.000000 0.054732 -0.709234 59.117687 0.220650 0.858093 -0.086068 -0.000000 0.000000 0.000000 0.000000 0.000000 0.000000 -0.916522 0.938879 58.902121 -0.692196 -0.823991 0.124494 -0.000000 0.000000 0.000000 0.000000 0.000000 0.000000
-26.990579 81.062302 330.785771 0.419545 -0.524439 -59.351160 -2.072554 0.256789 59.343702 0.416371 -1.389426 0.015889 3.449304 -1.690600 -1.072160 0.000000 0.000000 0.000000 0.910781 1.018047 -0.216861 -3.773322 -0.484066 0.229161 5.551754 -3.830055 1.613732 2.359268 0.001109 -1.229000 0.000000 0.000000 0.000000 0.000000 0.000000 0.000000 -0.000000 0.000000 0.000000 -0.000000 0.000000 0.000000 -0.000000 0.000000 0.000000 -0.000000 0.000000 0.000000 0.000000 0.000000 0.000000 0.000000 0.000000 0.000000 0.089395 -0.800827 59.453862 0.225618 1.009166 -0.097424 -0.000000 0.000000 0.000000 0.000000 0.000000 0.000000 -0.827728 1.066410 59.180704 -0.912898 -0.733995 0.167367 -0.000000 0.000000 0.000000 0.000000 0.000000 0.000000
-27.029782 81.119822 330.684729 0.448333 -0.567520 -59.365906 -2.332355 0.288981 59.356616 0.491914 -1.586467 0.020430 4.243213 -1.938922 -1.405364 0.000000 0.000000 0.000000 1.027505 1.127400 -0.246618 -4.216571 -0.567825 0.246804 6.179297 -3.928885 1.757897 2.067411 -0.618402 -1.478672 0.000000 0.000000 0.000000 0.000000 0.000000 0.000000 -0.000000 0.000000 0.000000 -0.000000 0.000000 0.000000 -0.000000 0.000000 0.000000 -0.000000 0.000000 0.000000 0.000000 0.000000 0.000000 0.000000 0.000000 0.000000 0.123991 -0.819927 59.472039 0.195960 1.091617 -0.099659 -0.000000 0.000000 0.000000 0.000000 0.000000 0.000000 -0.531811 1.112676 59.147828 -1.133023 -0.461321 0.213493 -0.000000 0.000000 0.000000 0.000000 0.000000 0.000000
-27.100111 81.307097 330.366592 0.414836 -0.202978 -59.422787 -2.161473 0.165643 59.406149 0.542777 -1.742002 0.023402 5.692038 -2.269455 -2.097120 0.000000 0.000000 0.000000 1.015536 1.088724 -0.244715 -4.289555 -0.580307 0.235401 6.284863 -3.503059 1.706791 1.297105 -2.497842 -1.849776 0.000000 0.000000 0.000000 0.000000 0.000000 0.000000 -0.000000 0.000000 0.000000 -0.000000 0.000000 0.000000 -0.000000 0.000000 0.000000 -0.000000 0.000000 0.000000 0.000000 0.000000 0.000000 0.000000 0.000000 0.000000 0.824650 -1.115103 59.554213 0.128954 1.479849 -0.118750 -0.000000 0.000000 0.000000 0.000000 0.000000 0.000000 0.212157 0.625150 59.213190 -1.061214 0.063759 0.208130 -0.000000 0.000000 0.000000 0.000000 0.000000 0.000000
-27.117186 81.480184 330.440043 0.420306 -0.364917 -58.144084 -2.301067 0.281533 58.130283 0.316615 -0.941613 -0.001014 6.970687 -3.234015 -2.520226 0.000000 0.000000 0.000000 1.248415 0.243106 -0.209446 -4.350211 -0.570038 0.230007 6.265121 -2.922082 1.579139 1.159052 -3.812908 -1.907488 0.000000 0.000000 0.000000 0.000000 0.000000 0.000000 0.238993 -0.796357 0.021699 -0.000000 0.000000 0.000000 -0.000000 0.000000 0.000000 -0.000000 0.000000 0.000000 0.000000 0.000000 0.000000 0.000000 0.000000 0.000000 0.304253 -0.782839 58.233067 0.085599 1.036356 -0.082271 -0.000000 0.000000 0.000000 0.000000 0.000000 0.000000 0.886576 0.616714 57.857558 -1.416014 0.785398 0.291208 -0.000000 0.000000 0.000000 0.000000 0.000000 0.000000
-27.093498 81.693056 330.482821 0.466630 -0.435006 -56.952680 -2.355546 0.328725 56.940756 0.283680 -0.923551 -0.004543 6.829274 -3.106350 -2.503319 0.000000 0.000000 0.000000 1.063216 -0.095291 -0.164339 -3.874896 -0.293631 0.204224 5.959502 -2.387250 1.484491 -0.220687 -3.249323 -1.950415 0.000000 0.000000 0.000000 0.000000 0.000000 0.000000 0.259261 -0.795002 0.024020 -0.000000 0.000000 0.000000 -0.000000 0.000000 0.000000 -0.000000 0.000000 0.000000 0.000000 0.000000 0.000000 0.000000 0.000000 0.000000 -0.619095 -0.153923 56.953620 -0.000000 0.000000 0.000000 -0.000000 0.000000 0.000000 0.000000 0.000000 0.000000 1.781943 0.307985 56.605897 -1.707595 1.750236 0.370580 -0.000000 0.000000 0.000000 0.000000 0.000000 0.000000
-27.328359 81.930615 330.311412 0.175170 -0.240888 -55.987033 -2.182523 0.454597 55.971134 0.335098 -0.984886 -0.004003 7.066567 -2.902177 -2.757948 0.000000 0.000000 0.000000 1.000057 -0.396936 -0.128590 -3.455437 -0.168010 0.170923 5.713316 -1.683532 1.408417 -1.456527 -3.527756 -2.107981 0.000000 0.000000 0.000000 0.000000 0.000000 0.000000 0.334574 -0.837330 0.032448 -0.000000 0.000000 0.000000 -0.000000 0.000000 0.000000 -0.000000 0.000000 0.000000 0.000000 0.000000 0.000000 0.000000 0.000000 0.000000 0.611667 -0.243038 56.015021 -0.315480 0.883996 -0.023202 -0.000000 0.000000 0.000000 0.000000 0.000000 0.000000 2.905949 0.407837 55.539988 -2.158528 2.404455 0.481578 -0.000000 0.000000 0.000000 0.000000 0.000000 0.000000
-27.543423 82.122634 330.379547 -0.067830 -0.373633 -55.668722 -2.234867 0.609458 55.648694 0.396082 -0.967820 -0.002055 6.834429 -2.742062 -2.655569 0.000000 0.000000 0.000000 0.429884 -0.847285 0.043336 -2.490670 0.135863 0.000535 5.628578 -0.554720 1.331089 -3.212003 -4.559396 -2.465300 0.000000 0.000000 0.000000 0.000000 0.000000 0.000000 0.429884 -0.847285 0.043336 -0.000000 0.000000 0.000000 -0.000000 0.000000 0.000000 -0.000000 0.000000 0.000000 0.000000 0.000000 0.000000 0.000000 0.000000 0.000000 0.683450 0.411920 55.638038 -0.658145 0.705361 0.029495 -0.000000 0.000000 0.000000 0.000000 0.000000 0.000000 4.886346 0.564072 54.982486 -3.206315 4.051485 0.762671 -0.000000 0.000000 0.000000 0.000000 0.000000 0.000000
-27.666123 82.218911 330.637213 -0.157534 -0.792010 -55.263792 -2.525146 0.769364 55.241311 0.439595 -0.882110 -0.000551 6.883358 -2.736697 -2.613173 0.000000 0.000000 0.000000 0.525579 -0.838635 0.054332 -2.193068 -0.035535 -0.030207 5.300329 0.613471 1.152941 -3.492964 -5.595267 -2.422675 0.000000 0.000000 0.000000 0.000000 0.000000 0.000000 0.525579 -0.838635 0.054332 -0.000000 0.000000 0.000000 -0.000000 0.000000 0.000000 -0.000000 0.000000 0.000000 0.000000 0.000000 0.000000 0.000000 0.000000 0.000000 0.188676 1.123952 55.176823 -0.874024 0.305329 0.079899 -0.000000 0.000000 0.000000 0.000000 0.000000 0.000000 5.942790 1.018867 54.336851 -4.153800 5.027377 1.020245 -0.000000 0.000000 0.000000 0.000000 0.000000 0.000000
-27.761502 82.290770 330.856751 -0.221205 -1.123685 -54.820235 -2.725987 0.864284 54.794049 0.476629 -0.793882 0.001010 6.600517 -2.794515 -2.317458 0.000000 0.000000 0.000000 0.609780 -0.807460 0.064037 -2.086995 -0.236629 -0.068205 5.189818 1.725793 1.005867 -4.026779 -8.137592 -2.851998 0.000000 0.000000 0.000000 0.000000 0.000000 0.000000 0.609780 -0.807460 0.064037 -0.000000 0.000000 0.000000 -0.000000 0.000000 0.000000 -0.000000 0.000000 0.000000 0.000000 0.000000 0.000000 0.000000 0.000000 0.000000 -0.199606 1.698856 54.690415 -1.052262 -0.020596 0.120137 -0.000000 0.000000 0.000000 0.000000 0.000000 0.000000 7.123215 1.382683 53.636058 -5.148459 6.042417 1.306708 -0.000000 0.000000 0.000000 0.000000 0.000000 0.000000
